{
  "accessors": [
    {
      "bufferView": 2,
      "componentType": 5126,
      "count": 55441,
      "max": [
        0.5010812878608704,
        0.15665695071220398,
        0.28551793098449707
      ],
      "min": [
        -0.5280849933624268,
        -0.17030751705169678,
        -0.29693734645843506
      ],
      "type": "VEC3"
    },
    {
      "bufferView": 2,
      "byteOffset": 665292,
      "componentType": 5126,
      "count": 55441,
      "max": [
        0.9999884963035583,
        0.9999720454216003,
        0.9999975562095642
      ],
      "min": [
        -0.9998932480812073,
        -0.9999872446060181,
        -0.9999791383743286
      ],
      "type": "VEC3"
    },
    {
      "bufferView": 3,
      "componentType": 5126,
      "count": 55441,
      "max": [
        0.9999927878379822,
        0.9999773502349854,
        0.999977171421051,
        1.0
      ],
      "min": [
        -0.9998843669891357,
        -0.9999945163726807,
        -0.9999290704727173,
        1.0
      ],
      "type": "VEC4"
    },
    {
      "bufferView": 1,
      "componentType": 5126,
      "count": 55441,
      "max": [
        0.9999935626983643,
        0.9977942705154419
      ],
      "min": [
        9.501785825705156e-06,
        1.5896623153821565e-05
      ],
      "type": "VEC2"
    },
    {
      "bufferView": 1,
      "byteOffset": 443528,
      "componentType": 5126,
      "count": 55441,
      "max": [
        0.9999935626983643,
        0.9977942705154419
      ],
      "min": [
        9.501785825705156e-06,
        1.5896623153821565e-05
      ],
      "type": "VEC2"
    },
    {
      "bufferView": 0,
      "componentType": 5125,
      "count": 300000,
      "type": "SCALAR"
    }
  ],
  "asset": {
    "extras": {
      "author": "Kai Christmann (https://sketchfab.com/kai_am_rhein)",
      "license": "CC-BY-NC-ND-4.0 (http://creativecommons.org/licenses/by-nc-nd/4.0/)",
      "source": "https://sketchfab.com/3d-models/toy-dino-allosaurus-b6617c83e9d64781b4b65081ce4c6fe1",
      "title": "Toy Dino Allosaurus"
    },
    "generator": "Sketchfab-14.41.0",
    "version": "2.0"
  },
  "bufferViews": [
    {
      "buffer": 0,
      "byteLength": 1200000,
      "name": "floatBufferViews",
      "target": 34963
    },
    {
      "buffer": 0,
      "byteLength": 887056,
      "byteOffset": 1200000,
      "byteStride": 8,
      "name": "floatBufferViews",
      "target": 34962
    },
    {
      "buffer": 0,
      "byteLength": 1330584,
      "byteOffset": 2087056,
      "byteStride": 12,
      "name": "floatBufferViews",
      "target": 34962
    },
    {
      "buffer": 0,
      "byteLength": 887056,
      "byteOffset": 3417640,
      "byteStride": 16,
      "name": "floatBufferViews",
      "target": 34962
    }
  ],
  "buffers": [
    {
      "byteLength": 4304696,
      "uri": "scene.bin"
    }
  ],
  "images": [
    {
      "uri": "textures/material_baseColor.jpeg"
    },
    {
      "uri": "textures/material_normal.jpeg"
    }
  ],
  "materials": [
    {
      "doubleSided": true,
      "name": "material",
      "normalTexture": {
        "index": 1
      },
      "pbrMetallicRoughness": {
        "baseColorTexture": {
          "index": 0
        },
        "metallicFactor": 0.0,
        "roughnessFactor": 0.5
      }
    }
  ],
  "meshes": [
    {
      "name": "Object_0",
      "primitives": [
        {
          "attributes": {
            "NORMAL": 1,
            "POSITION": 0,
            "TANGENT": 2,
            "TEXCOORD_0": 3,
            "TEXCOORD_1": 4
          },
          "indices": 5,
          "material": 0,
          "mode": 4
        }
      ]
    }
  ],
  "nodes": [
    {
      "children": [
        1
      ],
      "matrix": [
        1.0,
        0.0,
        0.0,
        0.0,
        0.0,
        2.220446049250313e-16,
        -1.0,
        0.0,
        0.0,
        1.0,
        2.220446049250313e-16,
        0.0,
        0.0,
        0.0,
        0.0,
        1.0
      ],
      "name": "Sketchfab_model"
    },
    {
      "children": [
        2
      ],
      "name": "root"
    },
    {
      "children": [
        3
      ],
      "matrix": [
        1.0,
        0.0,
        0.0,
        0.0,
        0.0,
        2.220446049250313e-16,
        1.0,
        0.0,
        0.0,
        -1.0,
        2.220446049250313e-16,
        0.0,
        0.0,
        0.0,
        0.0,
        1.0
      ],
      "name": "GLTF_SceneRootNode"
    },
    {
      "children": [
        4
      ],
      "matrix": [
        2.0,
        0.0,
        0.0,
        0.0,
        0.0,
        -3.37174793862971e-07,
        1.9999999999999716,
        0.0,
        0.0,
        -1.9999999999999716,
        -3.37174793862971e-07,
        0.0,
        0.0,
        0.0,
        0.0,
        1.0
      ],
      "name": "baked_mesh_5"
    },
    {
      "children": [
        5
      ],
      "name": "Geom_3"
    },
    {
      "children": [
        6
      ],
      "name": "g0_2"
    },
    {
      "mesh": 0,
      "name": "Object_6"
    }
  ],
  "samplers": [
    {
      "magFilter": 9729,
      "minFilter": 9987,
      "wrapS": 10497,
      "wrapT": 10497
    }
  ],
  "scene": 0,
  "scenes": [
    {
      "name": "Sketchfab_Scene",
      "nodes": [
        0
      ]
    }
  ],
  "textures": [
    {
      "sampler": 0,
      "source": 0
    },
    {
      "sampler": 0,
      "source": 1
    }
  ]
}
