{
  "accessors": [
    {
      "bufferView": 2,
      "componentType": 5126,
      "count": 56965,
      "max": [
        0.4215511083602905,
        0.14436903595924377,
        0.16604113578796387
      ],
      "min": [
        -0.4227726459503174,
        -0.15481090545654297,
        -0.1651071459054947
      ],
      "type": "VEC3"
    },
    {
      "bufferView": 2,
      "byteOffset": 683580,
      "componentType": 5126,
      "count": 56965,
      "max": [
        0.9997633695602417,
        0.9999867677688599,
        0.9999902248382568
      ],
      "min": [
        -0.9999359846115112,
        -0.9999854564666748,
        -0.9999427199363708
      ],
      "type": "VEC3"
    },
    {
      "bufferView": 3,
      "componentType": 5126,
      "count": 56965,
      "max": [
        0.9999569654464722,
        0.9999314546585083,
        0.9999866485595703,
        1.0
      ],
      "min": [
        -0.9999985694885254,
        -0.9999774694442749,
        -0.9999167323112488,
        1.0
      ],
      "type": "VEC4"
    },
    {
      "bufferView": 1,
      "componentType": 5126,
      "count": 56965,
      "max": [
        0.9999827146530151,
        0.9940412044525146
      ],
      "min": [
        6.477787246694788e-05,
        3.7397439882624894e-05
      ],
      "type": "VEC2"
    },
    {
      "bufferView": 1,
      "byteOffset": 455720,
      "componentType": 5126,
      "count": 56965,
      "max": [
        0.9999827146530151,
        0.9940412044525146
      ],
      "min": [
        6.477787246694788e-05,
        3.7397439882624894e-05
      ],
      "type": "VEC2"
    },
    {
      "bufferView": 1,
      "byteOffset": 911440,
      "componentType": 5126,
      "count": 56965,
      "max": [
        0.9999827146530151,
        0.9940412044525146
      ],
      "min": [
        6.477787246694788e-05,
        3.7397439882624894e-05
      ],
      "type": "VEC2"
    },
    {
      "bufferView": 0,
      "componentType": 5125,
      "count": 299997,
      "type": "SCALAR"
    }
  ],
  "asset": {
    "extras": {
      "author": "dinomaster (https://sketchfab.com/dinomaster)",
      "license": "CC-BY-4.0 (http://creativecommons.org/licenses/by/4.0/)",
      "source": "https://sketchfab.com/3d-models/ankylosaurus-toy-5b8454bad4874ce196b8857cb0213474",
      "title": "ankylosaurus toy"
    },
    "generator": "Sketchfab-14.41.0",
    "version": "2.0"
  },
  "bufferViews": [
    {
      "buffer": 0,
      "byteLength": 1199988,
      "name": "floatBufferViews",
      "target": 34963
    },
    {
      "buffer": 0,
      "byteLength": 1367160,
      "byteOffset": 1199988,
      "byteStride": 8,
      "name": "floatBufferViews",
      "target": 34962
    },
    {
      "buffer": 0,
      "byteLength": 1367160,
      "byteOffset": 2567148,
      "byteStride": 12,
      "name": "floatBufferViews",
      "target": 34962
    },
    {
      "buffer": 0,
      "byteLength": 911440,
      "byteOffset": 3934308,
      "byteStride": 16,
      "name": "floatBufferViews",
      "target": 34962
    }
  ],
  "buffers": [
    {
      "byteLength": 4845748,
      "uri": "scene.bin"
    }
  ],
  "images": [
    {
      "uri": "textures/material_baseColor.jpeg"
    },
    {
      "uri": "textures/material_normal.jpeg"
    }
  ],
  "materials": [
    {
      "doubleSided": true,
      "name": "material",
      "normalTexture": {
        "index": 1
      },
      "pbrMetallicRoughness": {
        "baseColorTexture": {
          "index": 0
        },
        "metallicFactor": 0.0,
        "roughnessFactor": 0.5
      }
    }
  ],
  "meshes": [
    {
      "name": "Object_0",
      "primitives": [
        {
          "attributes": {
            "NORMAL": 1,
            "POSITION": 0,
            "TANGENT": 2,
            "TEXCOORD_0": 3,
            "TEXCOORD_1": 4,
            "TEXCOORD_2": 5
          },
          "indices": 6,
          "material": 0,
          "mode": 4
        }
      ]
    }
  ],
  "nodes": [
    {
      "children": [
        1
      ],
      "matrix": [
        1.0,
        0.0,
        0.0,
        0.0,
        0.0,
        2.220446049250313e-16,
        -1.0,
        0.0,
        0.0,
        1.0,
        2.220446049250313e-16,
        0.0,
        0.0,
        0.0,
        0.0,
        1.0
      ],
      "name": "Sketchfab_model"
    },
    {
      "children": [
        2
      ],
      "name": "root"
    },
    {
      "children": [
        3
      ],
      "matrix": [
        1.0,
        0.0,
        0.0,
        0.0,
        0.0,
        2.220446049250313e-16,
        1.0,
        0.0,
        0.0,
        -1.0,
        2.220446049250313e-16,
        0.0,
        0.0,
        0.0,
        0.0,
        1.0
      ],
      "name": "GLTF_SceneRootNode"
    },
    {
      "children": [
        4
      ],
      "matrix": [
        1.0,
        0.0,
        0.0,
        0.0,
        0.0,
        2.220446049250313e-16,
        -1.0,
        0.0,
        0.0,
        1.0,
        2.220446049250313e-16,
        0.0,
        0.0,
        0.0,
        0.0,
        1.0
      ],
      "name": "Sketchfab_model_0"
    },
    {
      "children": [
        5
      ],
      "name": "root_1"
    },
    {
      "children": [
        6
      ],
      "matrix": [
        1.0,
        0.0,
        0.0,
        0.0,
        0.0,
        2.220446049250313e-16,
        1.0,
        0.0,
        0.0,
        -1.0,
        2.220446049250313e-16,
        0.0,
        0.0,
        0.0,
        0.0,
        1.0
      ],
      "name": "GLTF_SceneRootNode_2"
    },
    {
      "children": [
        7
      ],
      "matrix": [
        1.9999998807907104,
        0.0,
        0.0,
        0.0,
        0.0,
        -3.3717478231665154e-07,
        2.0,
        0.0,
        0.0,
        -2.0,
        -3.3717478231665154e-07,
        0.0,
        0.0,
        0.0,
        0.0,
        1.0
      ],
      "name": "baked_mesh_5_3"
    },
    {
      "children": [
        8
      ],
      "name": "Geom_3_4"
    },
    {
      "children": [
        9
      ],
      "name": "g0_2_5"
    },
    {
      "children": [
        10
      ],
      "name": "Object_6_6"
    },
    {
      "mesh": 0,
      "name": "Object_10"
    }
  ],
  "samplers": [
    {
      "magFilter": 9729,
      "minFilter": 9987,
      "wrapS": 10497,
      "wrapT": 10497
    }
  ],
  "scene": 0,
  "scenes": [
    {
      "name": "Sketchfab_Scene",
      "nodes": [
        0
      ]
    }
  ],
  "textures": [
    {
      "sampler": 0,
      "source": 0
    },
    {
      "sampler": 0,
      "source": 1
    }
  ]
}
