{
  "accessors": [
    {
      "bufferView": 2,
      "componentType": 5126,
      "count": 65532,
      "max": [
        7.17935848236084,
        5.16841983795166,
        34.669864654541016
      ],
      "min": [
        -10.35867977142334,
        -3.64943790435791,
        3.374664306640625
      ],
      "type": "VEC3"
    },
    {
      "bufferView": 2,
      "byteOffset": 786384,
      "componentType": 5126,
      "count": 65532,
      "max": [
        0.9999970197677612,
        0.9999884366989136,
        0.9999731779098511
      ],
      "min": [
        -0.9999527931213379,
        -0.9999912977218628,
        -0.9999959468841553
      ],
      "type": "VEC3"
    },
    {
      "bufferView": 1,
      "componentType": 5126,
      "count": 65532,
      "max": [
        0.9994694590568542,
        0.9897459745407104
      ],
      "min": [
        0.00048828125,
        0.0005911184707656503
      ],
      "type": "VEC2"
    },
    {
      "bufferView": 0,
      "componentType": 5125,
      "count": 306432,
      "type": "SCALAR"
    },
    {
      "bufferView": 2,
      "byteOffset": 1572768,
      "componentType": 5126,
      "count": 65532,
      "max": [
        9.11389446258545,
        5.034010410308838,
        34.433773040771484
      ],
      "min": [
        -9.679121017456055,
        -6.985256195068359,
        1.1439323425292969
      ],
      "type": "VEC3"
    },
    {
      "bufferView": 2,
      "byteOffset": 2359152,
      "componentType": 5126,
      "count": 65532,
      "max": [
        0.9999738335609436,
        0.9999610185623169,
        0.9998250603675842
      ],
      "min": [
        -0.9999611377716064,
        -0.9999912977218628,
        -0.9999992251396179
      ],
      "type": "VEC3"
    },
    {
      "bufferView": 1,
      "byteOffset": 524256,
      "componentType": 5126,
      "count": 65532,
      "max": [
        0.9993992447853088,
        0.9365101456642151
      ],
      "min": [
        0.00048828125,
        0.0004929496208205819
      ],
      "type": "VEC2"
    },
    {
      "bufferView": 0,
      "byteOffset": 1225728,
      "componentType": 5125,
      "count": 281013,
      "type": "SCALAR"
    },
    {
      "bufferView": 2,
      "byteOffset": 3145536,
      "componentType": 5126,
      "count": 65532,
      "max": [
        9.089232444763184,
        4.388056755065918,
        34.22665023803711
      ],
      "min": [
        -10.758731842041016,
        -6.429426193237305,
        1.1439323425292969
      ],
      "type": "VEC3"
    },
    {
      "bufferView": 2,
      "byteOffset": 3931920,
      "componentType": 5126,
      "count": 65532,
      "max": [
        0.9998421669006348,
        0.9999576210975647,
        0.9999904632568359
      ],
      "min": [
        -0.9999741911888123,
        -0.9999900460243225,
        -0.9999992251396179
      ],
      "type": "VEC3"
    },
    {
      "bufferView": 1,
      "byteOffset": 1048512,
      "componentType": 5126,
      "count": 65532,
      "max": [
        0.9995083212852478,
        0.9370115995407104
      ],
      "min": [
        0.00048828125,
        0.00048818124923855066
      ],
      "type": "VEC2"
    },
    {
      "bufferView": 0,
      "byteOffset": 2349780,
      "componentType": 5125,
      "count": 258516,
      "type": "SCALAR"
    },
    {
      "bufferView": 2,
      "byteOffset": 4718304,
      "componentType": 5126,
      "count": 15997,
      "max": [
        7.240181922912598,
        4.833844184875488,
        25.302213668823242
      ],
      "min": [
        -10.376819610595703,
        -5.6634674072265625,
        1.1489486694335938
      ],
      "type": "VEC3"
    },
    {
      "bufferView": 2,
      "byteOffset": 4910268,
      "componentType": 5126,
      "count": 15997,
      "max": [
        0.9998381733894348,
        0.9999011754989624,
        0.9996974468231201
      ],
      "min": [
        -0.999813973903656,
        -0.9999488592147827,
        -0.9998457431793213
      ],
      "type": "VEC3"
    },
    {
      "bufferView": 1,
      "byteOffset": 1572768,
      "componentType": 5126,
      "count": 15997,
      "max": [
        0.9994620680809021,
        0.9495278596878052
      ],
      "min": [
        0.00048828125,
        0.0005708528915420175
      ],
      "type": "VEC2"
    },
    {
      "bufferView": 0,
      "byteOffset": 3383844,
      "componentType": 5125,
      "count": 53973,
      "type": "SCALAR"
    }
  ],
  "asset": {
    "extras": {
      "author": "mpburton (https://sketchfab.com/mpburton)",
      "license": "CC-BY-4.0 (http://creativecommons.org/licenses/by/4.0/)",
      "source": "https://sketchfab.com/3d-models/chewbacca-f3c519c98d7b4ed391c2de67c9144267",
      "title": "Chewbacca"
    },
    "generator": "Sketchfab-14.57.0",
    "version": "2.0"
  },
  "bufferViews": [
    {
      "buffer": 0,
      "byteLength": 3599736,
      "name": "floatBufferViews",
      "target": 34963
    },
    {
      "buffer": 0,
      "byteLength": 1700744,
      "byteOffset": 3599736,
      "byteStride": 8,
      "name": "floatBufferViews",
      "target": 34962
    },
    {
      "buffer": 0,
      "byteLength": 5102232,
      "byteOffset": 5300480,
      "byteStride": 12,
      "name": "floatBufferViews",
      "target": 34962
    }
  ],
  "buffers": [
    {
      "byteLength": 10402712,
      "uri": "scene.bin"
    }
  ],
  "extensionsUsed": [
    "KHR_materials_unlit"
  ],
  "images": [
    {
      "uri": "textures/tex_u1_v1_baseColor.jpeg"
    }
  ],
  "materials": [
    {
      "doubleSided": true,
      "extensions": {
        "KHR_materials_unlit": {}
      },
      "name": "tex_u1_v1",
      "pbrMetallicRoughness": {
        "baseColorTexture": {
          "index": 0
        },
        "metallicFactor": 0.0
      }
    }
  ],
  "meshes": [
    {
      "name": "Object_0",
      "primitives": [
        {
          "attributes": {
            "NORMAL": 1,
            "POSITION": 0,
            "TEXCOORD_0": 2
          },
          "indices": 3,
          "material": 0,
          "mode": 4
        }
      ]
    },
    {
      "name": "Object_1",
      "primitives": [
        {
          "attributes": {
            "NORMAL": 5,
            "POSITION": 4,
            "TEXCOORD_0": 6
          },
          "indices": 7,
          "material": 0,
          "mode": 4
        }
      ]
    },
    {
      "name": "Object_2",
      "primitives": [
        {
          "attributes": {
            "NORMAL": 9,
            "POSITION": 8,
            "TEXCOORD_0": 10
          },
          "indices": 11,
          "material": 0,
          "mode": 4
        }
      ]
    },
    {
      "name": "Object_3",
      "primitives": [
        {
          "attributes": {
            "NORMAL": 13,
            "POSITION": 12,
            "TEXCOORD_0": 14
          },
          "indices": 15,
          "material": 0,
          "mode": 4
        }
      ]
    }
  ],
  "nodes": [
    {
      "children": [
        1
      ],
      "matrix": [
        1.0,
        0.0,
        0.0,
        0.0,
        0.0,
        2.220446049250313e-16,
        -1.0,
        0.0,
        0.0,
        1.0,
        2.220446049250313e-16,
        0.0,
        0.0,
        0.0,
        0.0,
        1.0
      ],
      "name": "Sketchfab_model"
    },
    {
      "children": [
        2,
        3,
        4,
        5
      ],
      "name": "model.obj.cleaner.materialmerger.gles"
    },
    {
      "mesh": 0,
      "name": "Object_2"
    },
    {
      "mesh": 1,
      "name": "Object_3"
    },
    {
      "mesh": 2,
      "name": "Object_4"
    },
    {
      "mesh": 3,
      "name": "Object_5"
    }
  ],
  "samplers": [
    {
      "magFilter": 9729,
      "minFilter": 9987,
      "wrapS": 10497,
      "wrapT": 10497
    }
  ],
  "scene": 0,
  "scenes": [
    {
      "name": "Sketchfab_Scene",
      "nodes": [
        0
      ]
    }
  ],
  "textures": [
    {
      "sampler": 0,
      "source": 0
    }
  ]
}
