{
  "accessors": [
    {
      "bufferView": 2,
      "componentType": 5126,
      "count": 65532,
      "max": [
        1.6587200164794922,
        0.24751999974250793,
        2.2276599407196045
      ],
      "min": [
        -1.1646699905395508,
        -0.33726999163627625,
        0.18977999687194824
      ],
      "type": "VEC3"
    },
    {
      "bufferView": 2,
      "byteOffset": 786384,
      "componentType": 5126,
      "count": 65532,
      "max": [
        0.9999877214431763,
        0.9999998807907104,
        0.9997509121894836
      ],
      "min": [
        -0.9999755024909973,
        -0.9999996423721313,
        -0.999765157699585
      ],
      "type": "VEC3"
    },
    {
      "bufferView": 1,
      "componentType": 5126,
      "count": 65532,
      "max": [
        0.9977859854698181,
        0.9958320260047913
      ],
      "min": [
        0.0021009999327361584,
        0.21355900168418884
      ],
      "type": "VEC2"
    },
    {
      "bufferView": 0,
      "componentType": 5125,
      "count": 346314,
      "type": "SCALAR"
    },
    {
      "bufferView": 2,
      "byteOffset": 1572768,
      "componentType": 5126,
      "count": 42424,
      "max": [
        1.5545899868011475,
        0.24420000612735748,
        2.2276599407196045
      ],
      "min": [
        -1.1290299892425537,
        -0.3326199948787689,
        0.21299000084400177
      ],
      "type": "VEC3"
    },
    {
      "bufferView": 2,
      "byteOffset": 2081856,
      "componentType": 5126,
      "count": 42424,
      "max": [
        0.9999235272407532,
        0.999996542930603,
        0.9999518990516663
      ],
      "min": [
        -0.9999924898147583,
        -0.9999862909317017,
        -0.999765157699585
      ],
      "type": "VEC3"
    },
    {
      "bufferView": 1,
      "byteOffset": 524256,
      "componentType": 5126,
      "count": 42424,
      "max": [
        0.9938660264015198,
        0.9957780241966248
      ],
      "min": [
        0.0021440000273287296,
        0.21250900626182556
      ],
      "type": "VEC2"
    },
    {
      "bufferView": 0,
      "byteOffset": 1385256,
      "componentType": 5125,
      "count": 230835,
      "type": "SCALAR"
    }
  ],
  "asset": {
    "extras": {
      "author": "ben.townsend (https://sketchfab.com/ben.townsend)",
      "license": "CC-BY-NC-SA-4.0 (http://creativecommons.org/licenses/by-nc-sa/4.0/)",
      "source": "https://sketchfab.com/3d-models/horse-9b58091498374f2191b37ec78abe6aaf",
      "title": "Horse"
    },
    "generator": "Sketchfab-14.20.0",
    "version": "2.0"
  },
  "bufferViews": [
    {
      "buffer": 0,
      "byteLength": 2308596,
      "name": "floatBufferViews",
      "target": 34963
    },
    {
      "buffer": 0,
      "byteLength": 863648,
      "byteOffset": 2308596,
      "byteStride": 8,
      "name": "floatBufferViews",
      "target": 34962
    },
    {
      "buffer": 0,
      "byteLength": 2590944,
      "byteOffset": 3172244,
      "byteStride": 12,
      "name": "floatBufferViews",
      "target": 34962
    }
  ],
  "buffers": [
    {
      "byteLength": 5763188,
      "uri": "scene.bin"
    }
  ],
  "extensionsUsed": [
    "KHR_materials_unlit"
  ],
  "images": [
    {
      "uri": "textures/main_baseColor.jpeg"
    }
  ],
  "materials": [
    {
      "extensions": {
        "KHR_materials_unlit": {}
      },
      "name": "main",
      "pbrMetallicRoughness": {
        "baseColorTexture": {
          "index": 0
        },
        "metallicFactor": 0.0
      }
    }
  ],
  "meshes": [
    {
      "name": "Object_0",
      "primitives": [
        {
          "attributes": {
            "NORMAL": 1,
            "POSITION": 0,
            "TEXCOORD_0": 2
          },
          "indices": 3,
          "material": 0,
          "mode": 4
        }
      ]
    },
    {
      "name": "Object_1",
      "primitives": [
        {
          "attributes": {
            "NORMAL": 5,
            "POSITION": 4,
            "TEXCOORD_0": 6
          },
          "indices": 7,
          "material": 0,
          "mode": 4
        }
      ]
    }
  ],
  "nodes": [
    {
      "children": [
        1
      ],
      "matrix": [
        1.0,
        0.0,
        0.0,
        0.0,
        0.0,
        2.220446049250313e-16,
        -1.0,
        0.0,
        0.0,
        1.0,
        2.220446049250313e-16,
        0.0,
        0.0,
        0.0,
        0.0,
        1.0
      ],
      "name": "Sketchfab_model"
    },
    {
      "children": [
        2,
        3
      ],
      "name": "Scaniverse.obj.cleaner.materialmerger.gles"
    },
    {
      "mesh": 0,
      "name": "Object_2"
    },
    {
      "mesh": 1,
      "name": "Object_3"
    }
  ],
  "samplers": [
    {
      "magFilter": 9729,
      "minFilter": 9987,
      "wrapS": 10497,
      "wrapT": 10497
    }
  ],
  "scene": 0,
  "scenes": [
    {
      "name": "Sketchfab_Scene",
      "nodes": [
        0
      ]
    }
  ],
  "textures": [
    {
      "sampler": 0,
      "source": 0
    }
  ]
}
